<mxfile host="app.diagrams.net" modified="2024-03-06T16:18:36.651Z" agent="5.0 (Windows)" etag="w3AUe6mYffLMXh2HXKwL" version="15.0.3" type="github">
  <diagram id="oc141sA5X3rjAd4bpJ3t" name="Page-1">
    <mxGraphModel dx="3342" dy="1842" grid="1" gridSize="10" guides="1" tooltips="1" connect="1" arrows="1" fold="1" page="1" pageScale="1" pageWidth="1500" pageHeight="1500" math="0" shadow="0">
      <root>
        <mxCell id="0" />
        <mxCell id="1" parent="0" />
        <mxCell id="bpgr1umbOOrT4S0ubv_E-1" value="поступальність психологічного знання" style="text;html=1;strokeColor=none;fillColor=none;align=center;verticalAlign=middle;whiteSpace=wrap;rounded=0;" vertex="1" parent="1">
          <mxGeometry x="300" y="160" width="90" height="50" as="geometry" />
        </mxCell>
        <mxCell id="bpgr1umbOOrT4S0ubv_E-2" value="принципи" style="text;html=1;strokeColor=none;fillColor=none;align=center;verticalAlign=middle;whiteSpace=wrap;rounded=0;" vertex="1" parent="1">
          <mxGeometry x="40" y="360" width="60" height="20" as="geometry" />
        </mxCell>
        <mxCell id="bpgr1umbOOrT4S0ubv_E-3" value="" style="endArrow=classic;startArrow=classic;html=1;entryX=0;entryY=0.5;entryDx=0;entryDy=0;exitX=1;exitY=0.5;exitDx=0;exitDy=0;" edge="1" parent="1" source="bpgr1umbOOrT4S0ubv_E-2" target="bpgr1umbOOrT4S0ubv_E-1">
          <mxGeometry width="50" height="50" relative="1" as="geometry">
            <mxPoint x="390" y="800" as="sourcePoint" />
            <mxPoint x="440" y="750" as="targetPoint" />
            <Array as="points" />
          </mxGeometry>
        </mxCell>
        <mxCell id="bpgr1umbOOrT4S0ubv_E-4" value="детермінізм" style="text;html=1;strokeColor=none;fillColor=none;align=center;verticalAlign=middle;whiteSpace=wrap;rounded=0;" vertex="1" parent="1">
          <mxGeometry x="40" y="460" width="80" height="20" as="geometry" />
        </mxCell>
        <mxCell id="bpgr1umbOOrT4S0ubv_E-5" value="" style="endArrow=classic;startArrow=classic;html=1;entryX=0.5;entryY=1;entryDx=0;entryDy=0;exitX=0.5;exitY=0;exitDx=0;exitDy=0;" edge="1" parent="1" source="bpgr1umbOOrT4S0ubv_E-4" target="bpgr1umbOOrT4S0ubv_E-2">
          <mxGeometry width="50" height="50" relative="1" as="geometry">
            <mxPoint x="390" y="800" as="sourcePoint" />
            <mxPoint x="440" y="750" as="targetPoint" />
          </mxGeometry>
        </mxCell>
        <mxCell id="bpgr1umbOOrT4S0ubv_E-6" value="вчинок" style="text;html=1;strokeColor=none;fillColor=none;align=center;verticalAlign=middle;whiteSpace=wrap;rounded=0;" vertex="1" parent="1">
          <mxGeometry x="170" y="460" width="40" height="20" as="geometry" />
        </mxCell>
        <mxCell id="bpgr1umbOOrT4S0ubv_E-8" value="" style="endArrow=classic;startArrow=classic;html=1;entryX=0.75;entryY=1;entryDx=0;entryDy=0;exitX=0;exitY=0;exitDx=0;exitDy=0;" edge="1" parent="1" source="bpgr1umbOOrT4S0ubv_E-6" target="bpgr1umbOOrT4S0ubv_E-2">
          <mxGeometry width="50" height="50" relative="1" as="geometry">
            <mxPoint x="390" y="800" as="sourcePoint" />
            <mxPoint x="440" y="750" as="targetPoint" />
          </mxGeometry>
        </mxCell>
        <mxCell id="bpgr1umbOOrT4S0ubv_E-9" value="ситуативний" style="text;html=1;strokeColor=none;fillColor=none;align=center;verticalAlign=middle;whiteSpace=wrap;rounded=0;" vertex="1" parent="1">
          <mxGeometry x="270" y="315" width="70" height="20" as="geometry" />
        </mxCell>
        <mxCell id="bpgr1umbOOrT4S0ubv_E-10" value="" style="endArrow=classic;startArrow=classic;html=1;exitX=0;exitY=1;exitDx=0;exitDy=0;exitPerimeter=0;entryX=1;entryY=0;entryDx=0;entryDy=0;" edge="1" parent="1" source="bpgr1umbOOrT4S0ubv_E-9" target="bpgr1umbOOrT4S0ubv_E-6">
          <mxGeometry width="50" height="50" relative="1" as="geometry">
            <mxPoint x="390" y="800" as="sourcePoint" />
            <mxPoint x="230" y="460" as="targetPoint" />
          </mxGeometry>
        </mxCell>
        <mxCell id="bpgr1umbOOrT4S0ubv_E-11" value="мотиваційний" style="text;html=1;strokeColor=none;fillColor=none;align=center;verticalAlign=middle;whiteSpace=wrap;rounded=0;" vertex="1" parent="1">
          <mxGeometry x="305" y="450" width="80" height="20" as="geometry" />
        </mxCell>
        <mxCell id="bpgr1umbOOrT4S0ubv_E-13" value="" style="endArrow=classic;startArrow=classic;html=1;entryX=1;entryY=0.5;entryDx=0;entryDy=0;exitX=0;exitY=0.5;exitDx=0;exitDy=0;" edge="1" parent="1" source="bpgr1umbOOrT4S0ubv_E-11" target="bpgr1umbOOrT4S0ubv_E-6">
          <mxGeometry width="50" height="50" relative="1" as="geometry">
            <mxPoint x="390" y="800" as="sourcePoint" />
            <mxPoint x="440" y="750" as="targetPoint" />
          </mxGeometry>
        </mxCell>
        <mxCell id="bpgr1umbOOrT4S0ubv_E-14" value="дійовий" style="text;html=1;strokeColor=none;fillColor=none;align=center;verticalAlign=middle;whiteSpace=wrap;rounded=0;" vertex="1" parent="1">
          <mxGeometry x="400" y="770" width="50" height="20" as="geometry" />
        </mxCell>
        <mxCell id="bpgr1umbOOrT4S0ubv_E-15" value="" style="endArrow=classic;startArrow=classic;html=1;entryX=0.25;entryY=1;entryDx=0;entryDy=0;exitX=0.25;exitY=0;exitDx=0;exitDy=0;" edge="1" parent="1" source="bpgr1umbOOrT4S0ubv_E-14" target="bpgr1umbOOrT4S0ubv_E-6">
          <mxGeometry width="50" height="50" relative="1" as="geometry">
            <mxPoint x="390" y="800" as="sourcePoint" />
            <mxPoint x="440" y="750" as="targetPoint" />
          </mxGeometry>
        </mxCell>
        <mxCell id="bpgr1umbOOrT4S0ubv_E-16" value="післядійовий" style="text;html=1;strokeColor=none;fillColor=none;align=center;verticalAlign=middle;whiteSpace=wrap;rounded=0;" vertex="1" parent="1">
          <mxGeometry x="465" y="770" width="80" height="20" as="geometry" />
        </mxCell>
        <mxCell id="bpgr1umbOOrT4S0ubv_E-17" value="" style="endArrow=classic;startArrow=classic;html=1;entryX=0.4;entryY=-0.15;entryDx=0;entryDy=0;entryPerimeter=0;exitX=0.75;exitY=1;exitDx=0;exitDy=0;" edge="1" parent="1" source="bpgr1umbOOrT4S0ubv_E-6" target="bpgr1umbOOrT4S0ubv_E-16">
          <mxGeometry width="50" height="50" relative="1" as="geometry">
            <mxPoint x="210" y="500" as="sourcePoint" />
            <mxPoint x="440" y="750" as="targetPoint" />
          </mxGeometry>
        </mxCell>
        <mxCell id="bpgr1umbOOrT4S0ubv_E-18" value="історичне становлення" style="text;html=1;strokeColor=none;fillColor=none;align=center;verticalAlign=middle;whiteSpace=wrap;rounded=0;" vertex="1" parent="1">
          <mxGeometry x="590" y="350" width="70" height="30" as="geometry" />
        </mxCell>
        <mxCell id="bpgr1umbOOrT4S0ubv_E-19" value="" style="endArrow=classic;startArrow=classic;html=1;exitX=1;exitY=0.5;exitDx=0;exitDy=0;entryX=0.5;entryY=0;entryDx=0;entryDy=0;" edge="1" parent="1" source="bpgr1umbOOrT4S0ubv_E-1" target="bpgr1umbOOrT4S0ubv_E-18">
          <mxGeometry width="50" height="50" relative="1" as="geometry">
            <mxPoint x="710" y="800" as="sourcePoint" />
            <mxPoint x="760" y="750" as="targetPoint" />
          </mxGeometry>
        </mxCell>
        <mxCell id="bpgr1umbOOrT4S0ubv_E-20" value="Міфологія" style="text;html=1;strokeColor=none;fillColor=none;align=center;verticalAlign=middle;whiteSpace=wrap;rounded=0;" vertex="1" parent="1">
          <mxGeometry x="460" y="360" width="60" height="20" as="geometry" />
        </mxCell>
        <mxCell id="bpgr1umbOOrT4S0ubv_E-21" value="" style="endArrow=classic;startArrow=classic;html=1;entryX=0;entryY=1;entryDx=0;entryDy=0;exitX=1;exitY=0.5;exitDx=0;exitDy=0;" edge="1" parent="1" source="bpgr1umbOOrT4S0ubv_E-20" target="bpgr1umbOOrT4S0ubv_E-18">
          <mxGeometry width="50" height="50" relative="1" as="geometry">
            <mxPoint x="710" y="800" as="sourcePoint" />
            <mxPoint x="760" y="750" as="targetPoint" />
          </mxGeometry>
        </mxCell>
        <mxCell id="bpgr1umbOOrT4S0ubv_E-22" value="Філософія" style="text;html=1;strokeColor=none;fillColor=none;align=center;verticalAlign=middle;whiteSpace=wrap;rounded=0;" vertex="1" parent="1">
          <mxGeometry x="610" y="420" width="60" height="20" as="geometry" />
        </mxCell>
        <mxCell id="bpgr1umbOOrT4S0ubv_E-23" value="" style="endArrow=classic;startArrow=classic;html=1;entryX=0.5;entryY=1;entryDx=0;entryDy=0;exitX=0.5;exitY=0;exitDx=0;exitDy=0;" edge="1" parent="1" source="bpgr1umbOOrT4S0ubv_E-22" target="bpgr1umbOOrT4S0ubv_E-18">
          <mxGeometry width="50" height="50" relative="1" as="geometry">
            <mxPoint x="710" y="800" as="sourcePoint" />
            <mxPoint x="760" y="750" as="targetPoint" />
          </mxGeometry>
        </mxCell>
        <mxCell id="bpgr1umbOOrT4S0ubv_E-24" value="Наука" style="text;html=1;strokeColor=none;fillColor=none;align=center;verticalAlign=middle;whiteSpace=wrap;rounded=0;" vertex="1" parent="1">
          <mxGeometry x="700" y="420" width="40" height="20" as="geometry" />
        </mxCell>
        <mxCell id="bpgr1umbOOrT4S0ubv_E-25" value="" style="endArrow=classic;startArrow=classic;html=1;entryX=1;entryY=1;entryDx=0;entryDy=0;exitX=0.5;exitY=0;exitDx=0;exitDy=0;" edge="1" parent="1" source="bpgr1umbOOrT4S0ubv_E-24" target="bpgr1umbOOrT4S0ubv_E-18">
          <mxGeometry width="50" height="50" relative="1" as="geometry">
            <mxPoint x="710" y="800" as="sourcePoint" />
            <mxPoint x="760" y="750" as="targetPoint" />
          </mxGeometry>
        </mxCell>
        <mxCell id="bpgr1umbOOrT4S0ubv_E-26" value="рівень розвитку суспільства" style="text;html=1;strokeColor=none;fillColor=none;align=center;verticalAlign=middle;whiteSpace=wrap;rounded=0;" vertex="1" parent="1">
          <mxGeometry x="605" y="510" width="70" height="50" as="geometry" />
        </mxCell>
        <mxCell id="bpgr1umbOOrT4S0ubv_E-27" value="" style="endArrow=classic;startArrow=classic;html=1;entryX=0.5;entryY=1;entryDx=0;entryDy=0;exitX=1;exitY=0;exitDx=0;exitDy=0;" edge="1" parent="1" source="bpgr1umbOOrT4S0ubv_E-26" target="bpgr1umbOOrT4S0ubv_E-24">
          <mxGeometry width="50" height="50" relative="1" as="geometry">
            <mxPoint x="710" y="800" as="sourcePoint" />
            <mxPoint x="760" y="750" as="targetPoint" />
          </mxGeometry>
        </mxCell>
        <mxCell id="bpgr1umbOOrT4S0ubv_E-28" value="" style="endArrow=classic;startArrow=classic;html=1;entryX=0.5;entryY=1;entryDx=0;entryDy=0;exitX=0;exitY=0;exitDx=0;exitDy=0;" edge="1" parent="1" source="bpgr1umbOOrT4S0ubv_E-26" target="bpgr1umbOOrT4S0ubv_E-20">
          <mxGeometry width="50" height="50" relative="1" as="geometry">
            <mxPoint x="710" y="800" as="sourcePoint" />
            <mxPoint x="760" y="750" as="targetPoint" />
          </mxGeometry>
        </mxCell>
        <mxCell id="bpgr1umbOOrT4S0ubv_E-29" value="" style="endArrow=classic;startArrow=classic;html=1;entryX=0.5;entryY=1;entryDx=0;entryDy=0;exitX=0.5;exitY=0;exitDx=0;exitDy=0;" edge="1" parent="1" source="bpgr1umbOOrT4S0ubv_E-26" target="bpgr1umbOOrT4S0ubv_E-22">
          <mxGeometry width="50" height="50" relative="1" as="geometry">
            <mxPoint x="710" y="800" as="sourcePoint" />
            <mxPoint x="760" y="750" as="targetPoint" />
          </mxGeometry>
        </mxCell>
        <mxCell id="bpgr1umbOOrT4S0ubv_E-30" value="до середніх віків" style="text;html=1;strokeColor=none;fillColor=none;align=center;verticalAlign=middle;whiteSpace=wrap;rounded=0;" vertex="1" parent="1">
          <mxGeometry x="300" y="375" width="60" height="40" as="geometry" />
        </mxCell>
        <mxCell id="bpgr1umbOOrT4S0ubv_E-31" value="" style="endArrow=classic;startArrow=classic;html=1;entryX=0.25;entryY=1;entryDx=0;entryDy=0;exitX=0.25;exitY=0;exitDx=0;exitDy=0;" edge="1" parent="1" source="bpgr1umbOOrT4S0ubv_E-30" target="bpgr1umbOOrT4S0ubv_E-9">
          <mxGeometry width="50" height="50" relative="1" as="geometry">
            <mxPoint x="910" y="545" as="sourcePoint" />
            <mxPoint x="960" y="495" as="targetPoint" />
          </mxGeometry>
        </mxCell>
        <mxCell id="bpgr1umbOOrT4S0ubv_E-32" value="Відродження, барокко, просвітництво" style="text;html=1;strokeColor=none;fillColor=none;align=center;verticalAlign=middle;whiteSpace=wrap;rounded=0;" vertex="1" parent="1">
          <mxGeometry x="300" y="520" width="90" height="50" as="geometry" />
        </mxCell>
        <mxCell id="bpgr1umbOOrT4S0ubv_E-33" value="" style="endArrow=classic;startArrow=classic;html=1;entryX=0.5;entryY=1;entryDx=0;entryDy=0;exitX=0.5;exitY=0;exitDx=0;exitDy=0;" edge="1" parent="1" source="bpgr1umbOOrT4S0ubv_E-32" target="bpgr1umbOOrT4S0ubv_E-11">
          <mxGeometry width="50" height="50" relative="1" as="geometry">
            <mxPoint x="815" y="710" as="sourcePoint" />
            <mxPoint x="865" y="660" as="targetPoint" />
          </mxGeometry>
        </mxCell>
        <mxCell id="bpgr1umbOOrT4S0ubv_E-34" value="19&amp;gt;&amp;lt;20ст." style="text;html=1;strokeColor=none;fillColor=none;align=center;verticalAlign=middle;whiteSpace=wrap;rounded=0;" vertex="1" parent="1">
          <mxGeometry x="390" y="830" width="70" height="30" as="geometry" />
        </mxCell>
        <mxCell id="bpgr1umbOOrT4S0ubv_E-35" value="" style="endArrow=classic;startArrow=classic;html=1;entryX=0.5;entryY=1;entryDx=0;entryDy=0;exitX=0.5;exitY=0;exitDx=0;exitDy=0;" edge="1" parent="1" source="bpgr1umbOOrT4S0ubv_E-34" target="bpgr1umbOOrT4S0ubv_E-14">
          <mxGeometry width="50" height="50" relative="1" as="geometry">
            <mxPoint x="810" y="1030" as="sourcePoint" />
            <mxPoint x="860" y="980" as="targetPoint" />
          </mxGeometry>
        </mxCell>
        <mxCell id="bpgr1umbOOrT4S0ubv_E-36" value="20 ст." style="text;html=1;strokeColor=none;fillColor=none;align=center;verticalAlign=middle;whiteSpace=wrap;rounded=0;" vertex="1" parent="1">
          <mxGeometry x="480" y="830" width="40" height="20" as="geometry" />
        </mxCell>
        <mxCell id="bpgr1umbOOrT4S0ubv_E-37" value="" style="endArrow=classic;startArrow=classic;html=1;entryX=0.5;entryY=1;entryDx=0;entryDy=0;exitX=0.5;exitY=0;exitDx=0;exitDy=0;" edge="1" parent="1" source="bpgr1umbOOrT4S0ubv_E-36" target="bpgr1umbOOrT4S0ubv_E-16">
          <mxGeometry width="50" height="50" relative="1" as="geometry">
            <mxPoint x="810" y="1030" as="sourcePoint" />
            <mxPoint x="860" y="980" as="targetPoint" />
          </mxGeometry>
        </mxCell>
        <mxCell id="bpgr1umbOOrT4S0ubv_E-38" value="" style="endArrow=classic;startArrow=classic;html=1;strokeColor=#FF0000;entryX=0;entryY=0.25;entryDx=0;entryDy=0;exitX=1;exitY=0.25;exitDx=0;exitDy=0;" edge="1" parent="1" source="bpgr1umbOOrT4S0ubv_E-9" target="bpgr1umbOOrT4S0ubv_E-20">
          <mxGeometry width="50" height="50" relative="1" as="geometry">
            <mxPoint x="710" y="800" as="sourcePoint" />
            <mxPoint x="760" y="750" as="targetPoint" />
          </mxGeometry>
        </mxCell>
        <mxCell id="bpgr1umbOOrT4S0ubv_E-39" value="" style="endArrow=classic;startArrow=classic;html=1;strokeColor=#FF0000;exitX=1;exitY=0.75;exitDx=0;exitDy=0;entryX=0;entryY=0.5;entryDx=0;entryDy=0;" edge="1" parent="1" source="bpgr1umbOOrT4S0ubv_E-9" target="bpgr1umbOOrT4S0ubv_E-22">
          <mxGeometry width="50" height="50" relative="1" as="geometry">
            <mxPoint x="710" y="800" as="sourcePoint" />
            <mxPoint x="760" y="750" as="targetPoint" />
          </mxGeometry>
        </mxCell>
        <mxCell id="bpgr1umbOOrT4S0ubv_E-40" value="" style="endArrow=classic;startArrow=classic;html=1;strokeColor=#FF0000;entryX=0;entryY=1;entryDx=0;entryDy=0;exitX=1;exitY=0.5;exitDx=0;exitDy=0;" edge="1" parent="1" source="bpgr1umbOOrT4S0ubv_E-11" target="bpgr1umbOOrT4S0ubv_E-22">
          <mxGeometry width="50" height="50" relative="1" as="geometry">
            <mxPoint x="710" y="800" as="sourcePoint" />
            <mxPoint x="760" y="750" as="targetPoint" />
          </mxGeometry>
        </mxCell>
        <mxCell id="bpgr1umbOOrT4S0ubv_E-41" value="" style="endArrow=classic;startArrow=classic;html=1;strokeColor=#FF0000;entryX=0.75;entryY=1;entryDx=0;entryDy=0;exitX=1;exitY=0.25;exitDx=0;exitDy=0;" edge="1" parent="1" source="bpgr1umbOOrT4S0ubv_E-14" target="bpgr1umbOOrT4S0ubv_E-24">
          <mxGeometry width="50" height="50" relative="1" as="geometry">
            <mxPoint x="710" y="800" as="sourcePoint" />
            <mxPoint x="760" y="750" as="targetPoint" />
            <Array as="points">
              <mxPoint x="670" y="630" />
            </Array>
          </mxGeometry>
        </mxCell>
        <mxCell id="bpgr1umbOOrT4S0ubv_E-42" value="" style="endArrow=classic;startArrow=classic;html=1;strokeColor=#FF0000;entryX=1;entryY=0.75;entryDx=0;entryDy=0;exitX=1;exitY=0.5;exitDx=0;exitDy=0;" edge="1" parent="1" source="bpgr1umbOOrT4S0ubv_E-16" target="bpgr1umbOOrT4S0ubv_E-24">
          <mxGeometry width="50" height="50" relative="1" as="geometry">
            <mxPoint x="710" y="800" as="sourcePoint" />
            <mxPoint x="760" y="750" as="targetPoint" />
            <Array as="points">
              <mxPoint x="710" y="670" />
            </Array>
          </mxGeometry>
        </mxCell>
      </root>
    </mxGraphModel>
  </diagram>
</mxfile>
